<?xml version="1.0" encoding="utf-8"?>
<!-- Generator: Adobe Illustrator 26.5.2, SVG Export Plug-In . SVG Version: 6.00 Build 0)  -->
<svg version="1.1" id="Ebene_1" xmlns="http://www.w3.org/2000/svg" xmlns:xlink="http://www.w3.org/1999/xlink" x="0px" y="0px"
	 viewBox="0 0 150 51" style="enable-background:new 0 0 150 51;" xml:space="preserve">
<style type="text/css">
	.st0{fill:#A3A793;}
	.st1{fill:#E7D0CB;}
	.st2{fill:#CC8574;}
	.st3{fill:#DDDFD6;}
	.st4{fill:#BDB0B1;}
	.st5{fill:#F5E1D3;}
	.st6{fill:#C8AD9D;}
	.st7{fill:#E4E6D8;}
	.st8{fill:#A6AA9D;}
	.st9{fill:#DCB98F;}
</style>
<path d="M6.8,50.8L2,44l0,0v6.8H0v-14C0.8,36.4,2.1,36,3.6,36c3.3,0,5,1.6,5,4.3c0,2.5-1.8,4-4.4,4l0,0L9,50.8H6.8L6.8,50.8z
	 M3.6,37.1c-0.7,0-1.3,0.1-1.7,0.3v6.1c0.2,0.1,0.7,0.1,1.2,0.1c2.4,0,3.5-1.2,3.5-3.3C6.7,38.2,5.7,37.1,3.6,37.1L3.6,37.1z
	 M15,36.2h2v14.6h-2V36.2z M23.9,50.8V36.2h6.8v1.3h-4.8v5.1h4.3v1.3h-4.3v5.6h4.8v1.3L23.9,50.8z M42.4,51c-3.4,0-6.1-2.5-6.1-7.6
	c0-4.8,2.8-7.4,6.1-7.4c1.6,0,2.7,0.3,3.4,0.8L45.2,38c-0.5-0.3-1.3-0.6-2.6-0.6c-2.7,0-4.3,1.9-4.3,6.2c0,4,1.8,6.1,4.1,6.1
	c1,0,1.5-0.2,1.8-0.3v-5.5h-2.5v-1.2h4.4v7.6C45.2,50.7,44.2,51,42.4,51 M52.8,50.8V36.2h6.8v1.3h-4.8v5.1h4.3v1.3h-4.3v5.6h4.8v1.3
	L52.8,50.8z M72.4,50.8L67.6,44l0,0v6.8h-1.9v-14c0.8-0.4,2.1-0.8,3.6-0.8c3.3,0,5,1.6,5,4.3c0,2.5-1.8,4-4.4,4l0,0l4.8,6.4
	L72.4,50.8L72.4,50.8z M69.3,37.1c-0.7,0-1.3,0.1-1.7,0.3v6.1c0.2,0.1,0.7,0.1,1.2,0.1c2.4,0,3.5-1.2,3.5-3.3
	C72.4,38.2,71.4,37.1,69.3,37.1L69.3,37.1z M83.6,51c-1.7,0-2.6-0.3-3.4-0.8l0.5-1.4c0.6,0.3,1.4,0.7,2.5,0.7c1.7,0,2.7-1.1,2.7-2.7
	c0-1.3-0.7-2.1-2.5-2.8c-2.4-1-3.1-2.5-3.1-3.9c0-2.2,1.6-4.1,4.1-4.1c1.3,0,2.3,0.3,3,0.8L87,38c-0.5-0.3-1.3-0.7-2.3-0.7
	c-1.5,0-2.4,1-2.4,2.6c0,1.5,1.1,2.1,2.4,2.7c2.9,1.1,3.3,2.8,3.3,4.1C88,49.2,86.2,51,83.6,51 M98.2,51c-1.7,0-3.1-0.3-4-0.8V36.8
	C95,36.3,96.4,36,98,36c3.2,0,4.9,1.5,4.9,3.6s-1.5,3.1-2.8,3.4l0,0c1.4,0.3,3.4,1.5,3.4,3.8C103.5,49.8,101.2,51,98.2,51 M98,37.1
	c-0.8,0-1.3,0.1-1.9,0.3v5.2H97c3,0,4-0.9,4-2.8C101.1,38,100,37.1,98,37.1L98,37.1z M97.1,43.6h-1v5.8c0.6,0.2,1.2,0.3,2.1,0.3
	c1.9,0,3.4-0.8,3.4-2.9C101.5,44.6,100.2,43.6,97.1,43.6L97.1,43.6z M114.2,51c-2.8,0-4.5-1.9-4.5-4.4V36.2h1.9v10.4
	c0,1.8,1.2,2.9,2.7,2.9c1.4,0,2.7-1,2.7-2.9V36.2h1.8v10.4C118.8,49.1,117,51,114.2,51 M132.5,50.8l-4.8-6.8l0,0v6.8h-1.9v-14
	c0.8-0.4,2.1-0.8,3.6-0.8c3.3,0,5,1.6,5,4.3c0,2.5-1.8,4-4.4,4l0,0l4.8,6.4L132.5,50.8L132.5,50.8z M129.3,37.1
	c-0.7,0-1.3,0.1-1.7,0.3v6.1c0.2,0.1,0.7,0.1,1.2,0.1c2.4,0,3.5-1.2,3.5-3.3C132.4,38.2,131.4,37.1,129.3,37.1L129.3,37.1z
	 M146.3,51c-3.4,0-6.1-2.5-6.1-7.6c0-4.8,2.8-7.4,6.1-7.4c1.6,0,2.7,0.3,3.4,0.8l-0.6,1.2c-0.5-0.3-1.3-0.6-2.6-0.6
	c-2.7,0-4.3,1.9-4.3,6.2c0,4,1.8,6.1,4.1,6.1c1,0,1.5-0.2,1.8-0.3v-5.5h-2.5v-1.2h4.4v7.6C149.1,50.7,148.1,51,146.3,51 M6.1,15
	C2.7,15,0,12.5,0,7.4C0,2.5,2.8,0,6.1,0c1.6,0,2.7,0.3,3.4,0.8L8.9,2C8.5,1.7,7.6,1.4,6.3,1.4C3.6,1.4,2,3.3,2,7.6
	c0,4,1.8,6.1,4.1,6.1c1,0,1.5-0.2,1.8-0.3V7.8H5.4V6.6h4.4v7.6C8.9,14.7,7.9,15,6.1,15 M16.2,14.8V0.2H23v1.3h-4.8v5.1h4.3v1.3h-4.3
	v5.6H23v1.3H16.2z M37.5,14.8L31.3,4.1c-0.5-0.9-0.9-1.8-0.9-1.8l0,0c0,0,0.1,0.9,0.1,1.8v10.6h-1.6V0.2H31l5.9,10.2
	c0.5,0.9,0.8,1.5,0.8,1.5l0,0c0,0-0.1-0.7-0.1-1.6V0.2h1.6v14.6H37.5z M50.4,15c-2.8,0-4.5-1.9-4.5-4.4V0.2h1.9v10.4
	c0,1.8,1.2,2.9,2.7,2.9c1.4,0,2.7-1,2.7-2.9V0.2H55v10.4C54.9,13.1,53.2,15,50.4,15 M64,15c-1.7,0-2.6-0.3-3.4-0.8l0.5-1.4
	c0.5,0.3,1.4,0.7,2.5,0.7c1.7,0,2.7-1.1,2.7-2.7c0-1.3-0.7-2.1-2.5-2.8c-2.4-1-3.1-2.5-3.1-3.9c0-2.2,1.6-4.1,4.1-4.1
	c1.3,0,2.3,0.3,3,0.8L67.4,2c-0.5-0.3-1.3-0.7-2.3-0.7c-1.5,0-2.4,1-2.4,2.6c0,1.5,1.1,2.1,2.4,2.7c2.9,1.1,3.3,2.8,3.3,4.1
	C68.4,13.2,66.6,15,64,15 M76.9,15c-1.6,0-2.6-0.3-3.4-0.8l0.5-1.4c0.6,0.3,1.4,0.7,2.5,0.7c1.7,0,2.7-1.1,2.7-2.7
	c0-1.3-0.7-2.1-2.5-2.8c-2.4-1-3.1-2.5-3.1-3.9c0-2.2,1.6-4.1,4.1-4.1c1.3,0,2.3,0.3,3,0.8L80.3,2C79.8,1.7,79,1.3,78,1.3
	c-1.5,0-2.4,1-2.4,2.6c0,1.5,1.1,2.1,2.4,2.7c2.9,1.1,3.3,2.8,3.3,4.1C81.3,13.2,79.4,15,76.9,15 M94.5,14.8V7.9H89v6.9h-1.9V0.2H89
	v6.4h5.5V0.2h1.9v14.6H94.5z M107.9,15c-3.8,0-5.3-3.3-5.3-7.5c0-4.1,1.5-7.5,5.3-7.5s5.2,3.4,5.2,7.5C113.1,11.7,111.7,15,107.9,15
	 M107.9,1.3c-2.7,0-3.3,3.2-3.3,6.1s0.6,6.1,3.3,6.1c2.8,0,3.3-3.2,3.3-6.1C111.2,4.5,110.5,1.3,107.9,1.3z M122.6,1.5v13.2h-1.9
	V1.5h-2.9V0.2h7.7v1.3H122.6z M131.1,14.8V0.2h6.8v1.3h-4.8v5.1h4.3v1.3h-4.3v5.6h4.8v1.3H131.1z M143.7,14.8V0.2h1.9v13.2h4.4v1.3
	h-6.3V14.8z"/>
<g>
	<rect y="18" class="st0" width="15" height="15"/>
	<rect x="15" y="18" class="st1" width="15" height="15"/>
	<rect x="30" y="18" class="st2" width="15" height="15"/>
	<rect x="45" y="18" class="st3" width="15" height="15"/>
	<rect x="60" y="18" class="st4" width="15" height="15"/>
	<rect x="75" y="18" class="st5" width="15" height="15"/>
	<rect x="90" y="18" class="st6" width="15" height="15"/>
	<rect x="105" y="18" class="st7" width="15" height="15"/>
	<rect x="120" y="18" class="st8" width="15" height="15"/>
	<rect x="135" y="18" class="st9" width="15" height="15"/>
</g>
</svg>
