<svg viewBox="0 0 148 122" fill="none" stroke="#d4a5a5" stroke-width="1.5" xmlns="http://www.w3.org/2000/svg">
  <!-- Row 1 -->
  <rect x="8" y="20" width="28" height="16" rx="2" fill="none"/>
  <circle cx="22" cy="12" r="5" fill="none"/>
  <rect x="44" y="20" width="28" height="16" rx="2" fill="none"/>
  <circle cx="58" cy="12" r="5" fill="none"/>
  <rect x="80" y="20" width="28" height="16" rx="2" fill="none"/>
  <circle cx="94" cy="12" r="5" fill="none"/>
  <!-- Row 2 -->
  <rect x="8" y="52" width="28" height="16" rx="2" fill="none"/>
  <circle cx="22" cy="44" r="5" fill="none"/>
  <rect x="44" y="52" width="28" height="16" rx="2" fill="none"/>
  <circle cx="58" cy="44" r="5" fill="none"/>
  <rect x="80" y="52" width="28" height="16" rx="2" fill="none"/>
  <circle cx="94" cy="44" r="5" fill="none"/>
  <!-- Row 3 -->
  <rect x="8" y="84" width="28" height="16" rx="2" fill="none"/>
  <circle cx="22" cy="76" r="5" fill="none"/>
  <rect x="44" y="84" width="28" height="16" rx="2" fill="none"/>
  <circle cx="58" cy="76" r="5" fill="none"/>
  <rect x="80" y="84" width="28" height="16" rx="2" fill="none"/>
  <circle cx="94" cy="76" r="5" fill="none"/>
</svg>
