<svg viewBox="0 0 147 101" fill="none" stroke="#d4a5a5" stroke-width="1.5" xmlns="http://www.w3.org/2000/svg">
  <!-- Row 1 -->
  <circle cx="20" cy="16" r="7" fill="none" stroke-dasharray="3,2"/>
  <circle cx="40" cy="16" r="7" fill="none" stroke-dasharray="3,2"/>
  <circle cx="60" cy="16" r="7" fill="none" stroke-dasharray="3,2"/>
  <circle cx="80" cy="16" r="7" fill="none" stroke-dasharray="3,2"/>
  <circle cx="100" cy="16" r="7" fill="none" stroke-dasharray="3,2"/>
  <!-- Row 2 -->
  <circle cx="20" cy="36" r="7" fill="none" stroke-dasharray="3,2"/>
  <circle cx="40" cy="36" r="7" fill="none" stroke-dasharray="3,2"/>
  <circle cx="60" cy="36" r="7" fill="none" stroke-dasharray="3,2"/>
  <circle cx="80" cy="36" r="7" fill="none" stroke-dasharray="3,2"/>
  <circle cx="100" cy="36" r="7" fill="none" stroke-dasharray="3,2"/>
  <!-- Row 3 -->
  <circle cx="20" cy="56" r="7" fill="none" stroke-dasharray="3,2"/>
  <circle cx="40" cy="56" r="7" fill="none" stroke-dasharray="3,2"/>
  <circle cx="60" cy="56" r="7" fill="none" stroke-dasharray="3,2"/>
  <circle cx="80" cy="56" r="7" fill="none" stroke-dasharray="3,2"/>
  <circle cx="100" cy="56" r="7" fill="none" stroke-dasharray="3,2"/>
  <!-- Row 4 -->
  <circle cx="20" cy="76" r="7" fill="none" stroke-dasharray="3,2"/>
  <circle cx="40" cy="76" r="7" fill="none" stroke-dasharray="3,2"/>
  <circle cx="60" cy="76" r="7" fill="none" stroke-dasharray="3,2"/>
  <circle cx="80" cy="76" r="7" fill="none" stroke-dasharray="3,2"/>
  <circle cx="100" cy="76" r="7" fill="none" stroke-dasharray="3,2"/>
</svg>
